<svg width="640" height="640" viewBox="0 0 640 640" fill="none" xmlns="http://www.w3.org/2000/svg">
<circle cx="320" cy="320" r="310" fill="black" stroke="#FF0000" stroke-width="20"/>
<path d="M440.5 262L462.439 214.5M536.5 254L516.507 207.5M516.507 207.5L492 150.5L462.439 214.5M516.507 207.5L462.439 214.5" stroke="white" stroke-width="13"/>
<path d="M269.695 196.5C269.695 196.5 328.195 199.5 321.695 179.5C315.195 159.5 306.195 151 279.195 151C252.195 151 241.378 171.071 243.195 196.5C245.012 221.929 243.195 215.5 253.195 226C263.195 236.5 287.63 228.929 309.695 226" stroke="white" stroke-width="13"/>
<path d="M124 228L161 130L171.5 185.5L220.5 130L190 241.5" stroke="white" stroke-width="13"/>
<path d="M422 172.5C413.801 152.442 406.572 144.905 385.5 143C354.096 146.24 345.679 155.037 345.5 182C344.942 206.444 345.126 218.55 345.5 240C344.587 254.973 360.303 252.382 372 253.5C383.697 254.618 429.139 234.971 422 225.5C407.019 206.422 396.818 200.5 372 207.5" stroke="white" stroke-width="13"/>
<path d="M148 489L177.107 414.5M311 350.643L206.214 340L177.107 414.5M177.107 414.5L292.371 428.045" stroke="#FF0000" stroke-width="13"/>
<path d="M394 413.751L460 340L439.812 504" stroke="#FF0000" stroke-width="13"/>
</svg>